<?xml version="1.0" encoding="UTF-8" standalone="no"?>
<!DOCTYPE svg PUBLIC "-//W3C//DTD SVG 1.1//EN"
 "http://www.w3.org/Graphics/SVG/1.1/DTD/svg11.dtd">
<!-- Generated by graphviz version 8.1.0 (20230707.2238)
 -->
<!-- Title: snakemake_dag Pages: 1 -->
<svg width="635pt" height="260pt"
 viewBox="0.00 0.00 634.75 260.00" xmlns="http://www.w3.org/2000/svg" xmlns:xlink="http://www.w3.org/1999/xlink">
<g id="graph0" class="graph" transform="scale(1 1) rotate(0) translate(4 256)">
<title>snakemake_dag</title>
<polygon fill="white" stroke="none" points="-4,4 -4,-256 630.75,-256 630.75,4 -4,4"/>
<!-- 0 -->
<g id="node1" class="node">
<title>0</title>
<path fill="none" stroke="#d85656" stroke-width="2" d="M329.38,-36C329.38,-36 299.38,-36 299.38,-36 293.38,-36 287.38,-30 287.38,-24 287.38,-24 287.38,-12 287.38,-12 287.38,-6 293.38,0 299.38,0 299.38,0 329.38,0 329.38,0 335.38,0 341.38,-6 341.38,-12 341.38,-12 341.38,-24 341.38,-24 341.38,-30 335.38,-36 329.38,-36"/>
<text text-anchor="middle" x="314.38" y="-14.88" font-family="sans" font-size="10.00">all</text>
</g>
<!-- 1 -->
<g id="node2" class="node">
<title>1</title>
<path fill="none" stroke="#56d88a" stroke-width="2" d="M161,-108C161,-108 91.75,-108 91.75,-108 85.75,-108 79.75,-102 79.75,-96 79.75,-96 79.75,-84 79.75,-84 79.75,-78 85.75,-72 91.75,-72 91.75,-72 161,-72 161,-72 167,-72 173,-78 173,-84 173,-84 173,-96 173,-96 173,-102 167,-108 161,-108"/>
<text text-anchor="middle" x="126.38" y="-86.88" font-family="sans" font-size="10.00">mv_done_reads</text>
</g>
<!-- 1&#45;&gt;0 -->
<g id="edge1" class="edge">
<title>1&#45;&gt;0</title>
<path fill="none" stroke="grey" stroke-width="2" d="M173.82,-71.34C204.94,-59.75 245.17,-44.77 274.62,-33.8"/>
<polygon fill="grey" stroke="grey" stroke-width="2" points="276.36,-37.14 284.51,-30.37 273.92,-30.58 276.36,-37.14"/>
</g>
<!-- 2 -->
<g id="node3" class="node">
<title>2</title>
<path fill="none" stroke="#56c1d8" stroke-width="2" d="M106.75,-252C106.75,-252 12,-252 12,-252 6,-252 0,-246 0,-240 0,-240 0,-228 0,-228 0,-222 6,-216 12,-216 12,-216 106.75,-216 106.75,-216 112.75,-216 118.75,-222 118.75,-228 118.75,-228 118.75,-240 118.75,-240 118.75,-246 112.75,-252 106.75,-252"/>
<text text-anchor="middle" x="59.38" y="-237.25" font-family="sans" font-size="10.00">combine_reads</text>
<text text-anchor="middle" x="59.38" y="-224.5" font-family="sans" font-size="10.00">input_reads: XLa1&#45;10</text>
</g>
<!-- 2&#45;&gt;1 -->
<g id="edge5" class="edge">
<title>2&#45;&gt;1</title>
<path fill="none" stroke="grey" stroke-width="2" d="M59.86,-215.34C61,-196.67 64.71,-166.83 76.38,-144 81.19,-134.58 88.2,-125.65 95.46,-117.9"/>
<polygon fill="grey" stroke="grey" stroke-width="2" points="98.01,-120.31 102.63,-110.77 93.07,-115.35 98.01,-120.31"/>
</g>
<!-- 3 -->
<g id="node4" class="node">
<title>3</title>
<path fill="none" stroke="#88d856" stroke-width="2" d="M155.75,-180C155.75,-180 97,-180 97,-180 91,-180 85,-174 85,-168 85,-168 85,-156 85,-156 85,-150 91,-144 97,-144 97,-144 155.75,-144 155.75,-144 161.75,-144 167.75,-150 167.75,-156 167.75,-156 167.75,-168 167.75,-168 167.75,-174 161.75,-180 155.75,-180"/>
<text text-anchor="middle" x="126.38" y="-158.88" font-family="sans" font-size="10.00">star_mapping</text>
</g>
<!-- 2&#45;&gt;3 -->
<g id="edge7" class="edge">
<title>2&#45;&gt;3</title>
<path fill="none" stroke="grey" stroke-width="2" d="M76.28,-215.34C83.61,-207.69 92.34,-198.56 100.46,-190.08"/>
<polygon fill="grey" stroke="grey" stroke-width="2" points="102.85,-192.55 107.24,-182.9 97.8,-187.71 102.85,-192.55"/>
</g>
<!-- 3&#45;&gt;1 -->
<g id="edge6" class="edge">
<title>3&#45;&gt;1</title>
<path fill="none" stroke="grey" stroke-width="2" d="M126.38,-143.34C126.38,-136.75 126.38,-129.08 126.38,-121.67"/>
<polygon fill="grey" stroke="grey" stroke-width="2" points="129.88,-121.9 126.38,-111.9 122.88,-121.9 129.88,-121.9"/>
</g>
<!-- 4 -->
<g id="node5" class="node">
<title>4</title>
<path fill="none" stroke="#d8bc56" stroke-width="2" stroke-dasharray="5,2" d="M342.5,-252C342.5,-252 288.25,-252 288.25,-252 282.25,-252 276.25,-246 276.25,-240 276.25,-240 276.25,-228 276.25,-228 276.25,-222 282.25,-216 288.25,-216 288.25,-216 342.5,-216 342.5,-216 348.5,-216 354.5,-222 354.5,-228 354.5,-228 354.5,-240 354.5,-240 354.5,-246 348.5,-252 342.5,-252"/>
<text text-anchor="middle" x="315.38" y="-230.88" font-family="sans" font-size="10.00">gen_star_idx</text>
</g>
<!-- 4&#45;&gt;3 -->
<g id="edge8" class="edge">
<title>4&#45;&gt;3</title>
<path fill="none" stroke="grey" stroke-width="2" d="M275.29,-218.15C247.77,-207.96 210.9,-194.31 180.74,-183.13"/>
<polygon fill="grey" stroke="grey" stroke-width="2" points="181.29,-179.87 170.69,-179.67 178.86,-186.43 181.29,-179.87"/>
</g>
<!-- 7 -->
<g id="node8" class="node">
<title>7</title>
<path fill="none" stroke="#88d856" stroke-width="2" d="M293.75,-180C293.75,-180 235,-180 235,-180 229,-180 223,-174 223,-168 223,-168 223,-156 223,-156 223,-150 229,-144 235,-144 235,-144 293.75,-144 293.75,-144 299.75,-144 305.75,-150 305.75,-156 305.75,-156 305.75,-168 305.75,-168 305.75,-174 299.75,-180 293.75,-180"/>
<text text-anchor="middle" x="264.38" y="-158.88" font-family="sans" font-size="10.00">star_mapping</text>
</g>
<!-- 4&#45;&gt;7 -->
<g id="edge12" class="edge">
<title>4&#45;&gt;7</title>
<path fill="none" stroke="grey" stroke-width="2" d="M302.51,-215.34C297.17,-208.01 290.85,-199.34 284.9,-191.18"/>
<polygon fill="grey" stroke="grey" stroke-width="2" points="287.14,-188.92 278.42,-182.9 281.48,-193.05 287.14,-188.92"/>
</g>
<!-- 10 -->
<g id="node11" class="node">
<title>10</title>
<path fill="none" stroke="#88d856" stroke-width="2" d="M394.75,-180C394.75,-180 336,-180 336,-180 330,-180 324,-174 324,-168 324,-168 324,-156 324,-156 324,-150 330,-144 336,-144 336,-144 394.75,-144 394.75,-144 400.75,-144 406.75,-150 406.75,-156 406.75,-156 406.75,-168 406.75,-168 406.75,-174 400.75,-180 394.75,-180"/>
<text text-anchor="middle" x="365.38" y="-158.88" font-family="sans" font-size="10.00">star_mapping</text>
</g>
<!-- 4&#45;&gt;10 -->
<g id="edge16" class="edge">
<title>4&#45;&gt;10</title>
<path fill="none" stroke="grey" stroke-width="2" d="M327.99,-215.34C333.16,-208.1 339.28,-199.53 345.05,-191.45"/>
<polygon fill="grey" stroke="grey" stroke-width="2" points="348.62,-193.07 351.59,-182.9 342.93,-189 348.62,-193.07"/>
</g>
<!-- 13 -->
<g id="node14" class="node">
<title>13</title>
<path fill="none" stroke="#88d856" stroke-width="2" d="M532.75,-180C532.75,-180 474,-180 474,-180 468,-180 462,-174 462,-168 462,-168 462,-156 462,-156 462,-150 468,-144 474,-144 474,-144 532.75,-144 532.75,-144 538.75,-144 544.75,-150 544.75,-156 544.75,-156 544.75,-168 544.75,-168 544.75,-174 538.75,-180 532.75,-180"/>
<text text-anchor="middle" x="503.38" y="-158.88" font-family="sans" font-size="10.00">star_mapping</text>
</g>
<!-- 4&#45;&gt;13 -->
<g id="edge20" class="edge">
<title>4&#45;&gt;13</title>
<path fill="none" stroke="grey" stroke-width="2" d="M355.24,-218.15C382.62,-207.96 419.29,-194.31 449.3,-183.13"/>
<polygon fill="grey" stroke="grey" stroke-width="2" points="451.13,-186.44 459.28,-179.67 448.69,-179.88 451.13,-186.44"/>
</g>
<!-- 5 -->
<g id="node6" class="node">
<title>5</title>
<path fill="none" stroke="#56d88a" stroke-width="2" d="M294,-108C294,-108 224.75,-108 224.75,-108 218.75,-108 212.75,-102 212.75,-96 212.75,-96 212.75,-84 212.75,-84 212.75,-78 218.75,-72 224.75,-72 224.75,-72 294,-72 294,-72 300,-72 306,-78 306,-84 306,-84 306,-96 306,-96 306,-102 300,-108 294,-108"/>
<text text-anchor="middle" x="259.38" y="-86.88" font-family="sans" font-size="10.00">mv_done_reads</text>
</g>
<!-- 5&#45;&gt;0 -->
<g id="edge2" class="edge">
<title>5&#45;&gt;0</title>
<path fill="none" stroke="grey" stroke-width="2" d="M273.25,-71.34C279.07,-63.93 285.98,-55.14 292.45,-46.9"/>
<polygon fill="grey" stroke="grey" stroke-width="2" points="295.88,-48.93 299.31,-38.9 290.38,-44.6 295.88,-48.93"/>
</g>
<!-- 6 -->
<g id="node7" class="node">
<title>6</title>
<path fill="none" stroke="#56c1d8" stroke-width="2" d="M243.75,-252C243.75,-252 149,-252 149,-252 143,-252 137,-246 137,-240 137,-240 137,-228 137,-228 137,-222 143,-216 149,-216 149,-216 243.75,-216 243.75,-216 249.75,-216 255.75,-222 255.75,-228 255.75,-228 255.75,-240 255.75,-240 255.75,-246 249.75,-252 243.75,-252"/>
<text text-anchor="middle" x="196.38" y="-237.25" font-family="sans" font-size="10.00">combine_reads</text>
<text text-anchor="middle" x="196.38" y="-224.5" font-family="sans" font-size="10.00">input_reads: XLa1&#45;11</text>
</g>
<!-- 6&#45;&gt;5 -->
<g id="edge9" class="edge">
<title>6&#45;&gt;5</title>
<path fill="none" stroke="grey" stroke-width="2" d="M197.36,-215.11C198.98,-196.51 203.23,-166.98 214.38,-144 218.77,-134.94 225.08,-126.15 231.59,-118.43"/>
<polygon fill="grey" stroke="grey" stroke-width="2" points="234.04,-120.72 238.12,-110.95 228.83,-116.04 234.04,-120.72"/>
</g>
<!-- 6&#45;&gt;7 -->
<g id="edge11" class="edge">
<title>6&#45;&gt;7</title>
<path fill="none" stroke="grey" stroke-width="2" d="M213.53,-215.34C220.97,-207.69 229.84,-198.56 238.07,-190.08"/>
<polygon fill="grey" stroke="grey" stroke-width="2" points="240.53,-192.51 244.98,-182.9 235.51,-187.64 240.53,-192.51"/>
</g>
<!-- 7&#45;&gt;5 -->
<g id="edge10" class="edge">
<title>7&#45;&gt;5</title>
<path fill="none" stroke="grey" stroke-width="2" d="M263.11,-143.34C262.64,-136.75 262.09,-129.08 261.57,-121.67"/>
<polygon fill="grey" stroke="grey" stroke-width="2" points="264.86,-121.63 260.65,-111.9 257.88,-122.13 264.86,-121.63"/>
</g>
<!-- 8 -->
<g id="node9" class="node">
<title>8</title>
<path fill="none" stroke="#56d88a" stroke-width="2" d="M405,-108C405,-108 335.75,-108 335.75,-108 329.75,-108 323.75,-102 323.75,-96 323.75,-96 323.75,-84 323.75,-84 323.75,-78 329.75,-72 335.75,-72 335.75,-72 405,-72 405,-72 411,-72 417,-78 417,-84 417,-84 417,-96 417,-96 417,-102 411,-108 405,-108"/>
<text text-anchor="middle" x="370.38" y="-86.88" font-family="sans" font-size="10.00">mv_done_reads</text>
</g>
<!-- 8&#45;&gt;0 -->
<g id="edge3" class="edge">
<title>8&#45;&gt;0</title>
<path fill="none" stroke="grey" stroke-width="2" d="M356.24,-71.34C350.32,-63.93 343.29,-55.14 336.7,-46.9"/>
<polygon fill="grey" stroke="grey" stroke-width="2" points="338.68,-44.52 329.7,-38.9 333.21,-48.9 338.68,-44.52"/>
</g>
<!-- 9 -->
<g id="node10" class="node">
<title>9</title>
<path fill="none" stroke="#56c1d8" stroke-width="2" d="M480.75,-252C480.75,-252 386,-252 386,-252 380,-252 374,-246 374,-240 374,-240 374,-228 374,-228 374,-222 380,-216 386,-216 386,-216 480.75,-216 480.75,-216 486.75,-216 492.75,-222 492.75,-228 492.75,-228 492.75,-240 492.75,-240 492.75,-246 486.75,-252 480.75,-252"/>
<text text-anchor="middle" x="433.38" y="-237.25" font-family="sans" font-size="10.00">combine_reads</text>
<text text-anchor="middle" x="433.38" y="-224.5" font-family="sans" font-size="10.00">input_reads: XLa1&#45;12</text>
</g>
<!-- 9&#45;&gt;8 -->
<g id="edge13" class="edge">
<title>9&#45;&gt;8</title>
<path fill="none" stroke="grey" stroke-width="2" d="M432.39,-215.11C430.77,-196.51 426.52,-166.98 415.38,-144 410.98,-134.94 404.67,-126.15 398.16,-118.43"/>
<polygon fill="grey" stroke="grey" stroke-width="2" points="400.92,-116.04 391.63,-110.95 395.71,-120.72 400.92,-116.04"/>
</g>
<!-- 9&#45;&gt;10 -->
<g id="edge15" class="edge">
<title>9&#45;&gt;10</title>
<path fill="none" stroke="grey" stroke-width="2" d="M416.22,-215.34C408.78,-207.69 399.91,-198.56 391.68,-190.08"/>
<polygon fill="grey" stroke="grey" stroke-width="2" points="394.24,-187.64 384.77,-182.9 389.22,-192.51 394.24,-187.64"/>
</g>
<!-- 10&#45;&gt;8 -->
<g id="edge14" class="edge">
<title>10&#45;&gt;8</title>
<path fill="none" stroke="grey" stroke-width="2" d="M366.64,-143.34C367.11,-136.75 367.66,-129.08 368.18,-121.67"/>
<polygon fill="grey" stroke="grey" stroke-width="2" points="371.87,-122.13 369.1,-111.9 364.89,-121.63 371.87,-122.13"/>
</g>
<!-- 11 -->
<g id="node12" class="node">
<title>11</title>
<path fill="none" stroke="#56d88a" stroke-width="2" d="M538,-108C538,-108 468.75,-108 468.75,-108 462.75,-108 456.75,-102 456.75,-96 456.75,-96 456.75,-84 456.75,-84 456.75,-78 462.75,-72 468.75,-72 468.75,-72 538,-72 538,-72 544,-72 550,-78 550,-84 550,-84 550,-96 550,-96 550,-102 544,-108 538,-108"/>
<text text-anchor="middle" x="503.38" y="-86.88" font-family="sans" font-size="10.00">mv_done_reads</text>
</g>
<!-- 11&#45;&gt;0 -->
<g id="edge4" class="edge">
<title>11&#45;&gt;0</title>
<path fill="none" stroke="grey" stroke-width="2" d="M456.17,-71.52C424.79,-59.89 384.04,-44.8 354.28,-33.78"/>
<polygon fill="grey" stroke="grey" stroke-width="2" points="354.85,-30.52 344.26,-30.33 352.42,-37.08 354.85,-30.52"/>
</g>
<!-- 12 -->
<g id="node13" class="node">
<title>12</title>
<path fill="none" stroke="#56c1d8" stroke-width="2" d="M614.75,-252C614.75,-252 526,-252 526,-252 520,-252 514,-246 514,-240 514,-240 514,-228 514,-228 514,-222 520,-216 526,-216 526,-216 614.75,-216 614.75,-216 620.75,-216 626.75,-222 626.75,-228 626.75,-228 626.75,-240 626.75,-240 626.75,-246 620.75,-252 614.75,-252"/>
<text text-anchor="middle" x="570.38" y="-237.25" font-family="sans" font-size="10.00">combine_reads</text>
<text text-anchor="middle" x="570.38" y="-224.5" font-family="sans" font-size="10.00">input_reads: XLa1&#45;9</text>
</g>
<!-- 12&#45;&gt;11 -->
<g id="edge17" class="edge">
<title>12&#45;&gt;11</title>
<path fill="none" stroke="grey" stroke-width="2" d="M569.89,-215.34C568.75,-196.67 565.04,-166.83 553.38,-144 548.56,-134.58 541.55,-125.65 534.29,-117.9"/>
<polygon fill="grey" stroke="grey" stroke-width="2" points="536.68,-115.35 527.12,-110.77 531.74,-120.31 536.68,-115.35"/>
</g>
<!-- 12&#45;&gt;13 -->
<g id="edge19" class="edge">
<title>12&#45;&gt;13</title>
<path fill="none" stroke="grey" stroke-width="2" d="M553.47,-215.34C546.14,-207.69 537.41,-198.56 529.29,-190.08"/>
<polygon fill="grey" stroke="grey" stroke-width="2" points="531.95,-187.71 522.51,-182.9 526.9,-192.55 531.95,-187.71"/>
</g>
<!-- 13&#45;&gt;11 -->
<g id="edge18" class="edge">
<title>13&#45;&gt;11</title>
<path fill="none" stroke="grey" stroke-width="2" d="M503.38,-143.34C503.38,-136.75 503.38,-129.08 503.38,-121.67"/>
<polygon fill="grey" stroke="grey" stroke-width="2" points="506.88,-121.9 503.38,-111.9 499.88,-121.9 506.88,-121.9"/>
</g>
</g>
</svg>
